<?xml version="1.0" encoding="UTF-8" standalone="no"?>
<!-- Created with Inkscape (http://www.inkscape.org/) -->

<svg
   width="512"
   height="512"
   viewBox="0 0 135.46666 135.46667"
   version="1.1"
   id="svg5"
   xml:space="preserve"
   inkscape:version="1.2.2 (1:1.2.2+202305151914+b0a8486541)"
   sodipodi:docname="foot.svg"
   xmlns:inkscape="http://www.inkscape.org/namespaces/inkscape"
   xmlns:sodipodi="http://sodipodi.sourceforge.net/DTD/sodipodi-0.dtd"
   xmlns="http://www.w3.org/2000/svg"
   xmlns:svg="http://www.w3.org/2000/svg"><sodipodi:namedview
     id="namedview7"
     pagecolor="#ffffff"
     bordercolor="#000000"
     borderopacity="0.25"
     inkscape:showpageshadow="2"
     inkscape:pageopacity="0.0"
     inkscape:pagecheckerboard="0"
     inkscape:deskcolor="#d1d1d1"
     inkscape:document-units="px"
     showgrid="false"
     inkscape:zoom="0.702883"
     inkscape:cx="132.31221"
     inkscape:cy="561.9712"
     inkscape:window-width="1862"
     inkscape:window-height="1018"
     inkscape:window-x="0"
     inkscape:window-y="0"
     inkscape:window-maximized="1"
     inkscape:current-layer="layer1" /><defs
     id="defs2" /><g
     inkscape:label="Layer 1"
     inkscape:groupmode="layer"
     id="layer1"><path
       style="fill:#000000;stroke-width:0.26355"
       d="m 62.287923,134.91457 c -4.460164,-0.58065 -7.658162,-2.0152 -10.231955,-4.58983 -2.049501,-2.05016 -2.988402,-3.72792 -3.881435,-6.93589 -0.482033,-1.73156 -0.565433,-2.73084 -0.565449,-6.77504 -1.8e-5,-4.62254 0.02077,-4.80313 0.812279,-7.05952 1.15692,-3.29805 2.828777,-5.89077 6.867114,-10.649532 3.784491,-4.45963 5.138655,-6.29189 6.195152,-8.38238 2.790218,-5.521 2.441212,-13.279947 -0.847882,-18.849672 -1.391859,-2.356968 -3.257478,-4.381318 -7.975865,-8.654472 -6.971528,-6.313683 -8.625796,-8.456757 -9.892585,-12.815644 -0.689214,-2.371516 -0.844131,-6.401274 -0.333309,-8.670082 0.993441,-4.412341 4.401622,-7.747458 9.175002,-8.978312 7.660918,-1.97543 20.998054,-0.02675 30.511701,4.458042 3.955058,1.864439 6.649825,3.742597 9.47252,6.602015 2.777254,2.813381 4.493335,5.54269 5.643416,8.975455 1.186533,3.541564 1.429515,5.651433 1.257457,10.918816 -0.252091,7.717552 -1.57651,12.455213 -6.143388,21.975874 -7.631074,15.908652 -8.699271,19.443702 -9.185831,30.399252 -0.23414,5.27196 -1.285456,8.71738 -3.781523,12.393 -2.179541,3.20952 -5.897346,5.77503 -9.464214,6.53088 -1.915274,0.40587 -5.003126,0.44918 -7.631205,0.10704 z M 92.649195,34.966892 c -2.587838,-2.587838 -1.432385,-8.355341 1.673894,-8.355341 1.212862,0 2.00966,0.540986 2.645811,1.796377 0.777311,1.533957 0.917878,2.998582 0.444174,4.628069 -0.801113,2.755726 -3.034009,3.660764 -4.763879,1.930895 z m -7.114224,-6.028565 c -2.496312,-1.963599 -2.212938,-7.154596 0.528512,-9.681578 1.349301,-1.243743 2.587482,-1.425181 3.970497,-0.581822 2.654044,1.618434 2.394929,7.342008 -0.448686,9.911044 -0.840587,0.759419 -1.22887,0.924628 -2.173124,0.924628 -0.780858,0 -1.383064,-0.183586 -1.877199,-0.572272 z M 44.814094,25.166751 c -3.371822,-1.012757 -6.381161,-4.87634 -7.496343,-9.624292 -0.473016,-2.013896 -0.530699,-5.7194216 -0.119796,-7.6958586 0.722298,-3.474253 3.144718,-6.627979 5.624295,-7.32221798 4.206695,-1.177802 8.897252,2.90818598 10.606035,9.23902098 0.651063,2.4121086 0.636502,6.9573146 -0.0294,9.1772166 -0.645012,2.150264 -2.207641,4.493048 -3.62046,5.428008 -1.288163,0.852467 -3.564798,1.218485 -4.964329,0.798123 z m 31.464831,-0.09575 c -2.41313,-1.517557 -3.634254,-5.899144 -2.618162,-9.394377 1.572465,-5.409094 6.200937,-6.2704156 8.510263,-1.583693 0.709503,1.439919 0.890733,2.30872 0.890733,4.270089 0,2.457638 -0.620112,4.283083 -1.956367,5.759023 -1.044382,1.153555 -1.245212,1.259688 -2.569685,1.358 -1.103301,0.0819 -1.627082,-0.01304 -2.256782,-0.409042 z M 63.789679,23.446394 c -2.152698,-0.389175 -3.50993,-1.643904 -4.843592,-4.477787 -0.684209,-1.453871 -0.821896,-2.098029 -0.909979,-4.257243 -0.116141,-2.847019 0.294886,-4.607671 1.489114,-6.3787116 1.074743,-1.593844 2.279203,-2.277986 4.010488,-2.277986 3.553866,0 6.20344,3.54466 6.511844,8.7116836 0.318542,5.336864 -2.572112,9.346373 -6.257875,8.680044 z"
       id="path285" /></g></svg>
