<?xml version="1.0" encoding="UTF-8" standalone="no"?>
<!-- Created with Inkscape (http://www.inkscape.org/) -->

<svg width="512" height="512" viewBox="0 0 135.46666 135.46667" version="1.1" id="svg5" xml:space="preserve"
  inkscape:version="1.2.2 (1:1.2.2+202305151914+b0a8486541)" sodipodi:docname="hand.svg"
  xmlns:inkscape="http://www.inkscape.org/namespaces/inkscape"
  xmlns:sodipodi="http://sodipodi.sourceforge.net/DTD/sodipodi-0.dtd" xmlns="http://www.w3.org/2000/svg"
  xmlns:svg="http://www.w3.org/2000/svg">
  <sodipodi:namedview id="namedview7" pagecolor="#ffffff" bordercolor="#000000" borderopacity="0.25"
    inkscape:showpageshadow="2" inkscape:pageopacity="0.0" inkscape:pagecheckerboard="0" inkscape:deskcolor="#d1d1d1"
    inkscape:document-units="px" showgrid="false" inkscape:zoom="0.702883" inkscape:cx="177.83899"
    inkscape:cy="561.9712" inkscape:window-width="1862" inkscape:window-height="1018" inkscape:window-x="0"
    inkscape:window-y="0" inkscape:window-maximized="1" inkscape:current-layer="layer1" />
  <defs id="defs2" />
  <g inkscape:label="Layer 1" inkscape:groupmode="layer" id="layer1">
    <path style="fill:#000000;stroke-width:0.263854"
      d="M 52.05929,135.00228 C 34.712035,132.67637 21.616715,117.87589 21.598823,100.57551 21.590849,93.321928 20.069645,85.473152 17.327052,78.541905 16.0195,75.237377 14.442576,72.299475 7.4820887,60.200156 3.7532866,53.718425 0.64538165,48.017518 0.45974047,47.318865 -0.46882429,43.824174 2.0216822,39.953407 5.6890824,39.191348 c 2.347887,-0.487867 5.2819526,0.536434 6.5702166,2.293706 0.303102,0.413449 4.613389,7.819693 9.578403,16.458312 4.965015,8.63862 9.269669,15.914464 9.565894,16.16854 1.264065,1.084216 3.481653,0.07024 3.459242,-1.581712 -0.0055,-0.400449 -3.110886,-12.318495 -6.901,-26.48456 -4.663029,-17.428664 -6.891132,-26.183295 -6.891132,-27.076527 0,-2.136275 0.698208,-3.735923 2.354057,-5.393291 1.714091,-1.715681 3.256107,-2.35633 5.670838,-2.356015 2.749381,3.7e-4 5.590008,1.73428 6.856162,4.185009 0.212091,0.410522 3.414583,12.089303 7.116645,25.952847 3.702062,13.863541 6.808824,25.409383 6.903913,25.657413 0.09509,0.248029 0.521819,0.631567 0.94828,0.852299 0.6245,0.323247 0.951154,0.343281 1.678629,0.102973 0.496785,-0.164112 0.993905,-0.438192 1.104715,-0.609088 0.11081,-0.170887 0.260813,-14.030867 0.333339,-30.799955 L 54.169151,6.0720578 54.890496,4.7027007 c 0.888816,-1.6872749 2.254368,-3.0443004 3.860408,-3.83630461 0.941638,-0.46436185 1.67213,-0.60181268 3.198359,-0.60181268 3.222738,0 5.604413,1.46807899 7.185094,4.42893939 l 0.595018,1.1145582 0.131866,31.50254 0.131866,31.502543 0.622615,0.504569 c 1.093298,0.886003 2.726122,0.630829 3.310443,-0.51734 0.194236,-0.381672 3.824479,-12.869847 8.067203,-27.751495 4.242725,-14.881658 7.949298,-27.532714 8.236831,-28.113461 2.903584,-5.8646045 11.304431,-5.7080556 14.165631,0.263976 1.29505,2.70309 1.42866,2.060133 -6.795879,32.702871 l -7.431294,27.687333 0.003,7.02553 c 0.002,6.827145 0.02013,7.063332 0.625313,8.36412 1.567503,3.369389 5.922187,4.780903 9.164654,2.970587 0.748986,-0.418178 2.903926,-2.714676 6.768316,-7.212908 7.15688,-8.330818 8.44136,-9.665567 10.81233,-11.235576 4.1405,-2.741734 10.34242,-4.253187 13.58298,-3.310256 3.5213,1.024613 5.17762,5.239838 3.28346,8.356209 -0.64803,1.066188 -41.661112,44.181387 -44.710675,47.002307 -4.726345,4.37202 -11.645047,7.81787 -18.25397,9.09139 -2.648819,0.51041 -16.36536,0.76604 -19.384347,0.36126 z m 5.814104,-9.865 c 0.487586,-0.48803 0.647345,-0.92948 0.647345,-1.78876 0,-0.62745 0.121267,-2.10885 0.269485,-3.29198 1.740241,-13.89151 11.994648,-24.842794 25.648297,-27.391302 2.961756,-0.552818 3.888846,-1.58655 3.058594,-3.410435 -0.683964,-1.502524 -3.030116,-1.456549 -8.141498,0.159534 -14.085196,4.453346 -24.289135,17.455013 -24.976875,31.825043 -0.149935,3.13283 -0.13462,3.2633 0.457009,3.89366 0.824773,0.87874 2.162093,0.88061 3.037643,0.004 z"
      id="path179" />
  </g>
</svg>