<?xml version="1.0" encoding="UTF-8" standalone="no"?>
<!-- Created with Inkscape (http://www.inkscape.org/) -->

<svg width="512" height="512" viewBox="0 0 512 512" version="1.1" id="svg5"
   inkscape:version="1.2.2 (1:1.2.2+202305151914+b0a8486541)" sodipodi:docname="twister_circle.svg" xml:space="preserve"
   xmlns:inkscape="http://www.inkscape.org/namespaces/inkscape"
   xmlns:sodipodi="http://sodipodi.sourceforge.net/DTD/sodipodi-0.dtd" xmlns="http://www.w3.org/2000/svg"
   xmlns:svg="http://www.w3.org/2000/svg">
   <style id="style2">
      .heavy {
         font: bold 20px sans-serif;
      }
   </style>
   <sodipodi:namedview id="namedview7" pagecolor="#ffffff" bordercolor="#111111" borderopacity="1"
      inkscape:showpageshadow="0" inkscape:pageopacity="0" inkscape:pagecheckerboard="1" inkscape:deskcolor="#d1d1d1"
      inkscape:document-units="px" showgrid="false" inkscape:zoom="0.98603159" inkscape:cx="121.19287"
      inkscape:cy="353.94404" inkscape:window-width="1862" inkscape:window-height="1018" inkscape:window-x="0"
      inkscape:window-y="0" inkscape:window-maximized="1" inkscape:current-layer="layer1" />
   <defs id="defs2">
      <inkscape:perspective sodipodi:type="inkscape:persp3d" inkscape:vp_x="0 : -9.8519686 : 1"
         inkscape:vp_y="0 : 755.90549 : 0" inkscape:vp_z="158.74015 : -9.8519686 : 1"
         inkscape:persp3d-origin="79.370086 : -47.269294 : 1" id="perspective371" />
   </defs>
   <g inkscape:label="Layer 1" inkscape:groupmode="layer" id="layer1">
      <circle style="fill:#e3e3e3;fill-opacity:1;stroke-width:3;stroke:#000" id="path668" cx="256" cy="256" r="256"
         inkscape:label="twister_disk" sodipodi:insensitive="true" />
      <path id="arc_color_00"
         d="M 512.000,256.000 A 256 256 0 0 1 492.513 353.967 L 422.298 324.883 A 180 180 0 0 0 436.000 256.000 z"
         style="fill:#facc15;fill-opacity:1;stroke-width:3;stroke:#facc15;stroke-opacity:1;" />
      <path id="arc_color_01"
         d="M 492.513,353.967 A256 256 0 0 1 437.019 437.019 L 383.279 383.279 A 180 180 0 0 0 422.298 324.883 z"
         style="fill:#059669;fill-opacity:1;stroke-width:3;stroke:#059669;stroke-opacity:1;" />
      <path id="arc_color_02"
         d="M 437.019,437.019 A256 256 0 0 1 353.967 492.513 L 324.883 422.298 A 180 180 0 0 0 383.279 383.279 z"
         style="fill:#2563eb;fill-opacity:1;stroke-width:3;stroke:#2563eb;stroke-opacity:1;" />
      <path id="arc_color_03"
         d="M 353.967,492.513 A256 256 0 0 1 256.000 512.000 L 256.000 436.000 A 180 180 0 0 0 324.883 422.298 z"
         style="fill:#dc2626;fill-opacity:1;stroke-width:3;stroke:#dc2626;stroke-opacity:1;" />
      <path id="arc_color_04"
         d="M 256.000,512.000 A256 256 0 0 1 158.033 492.513 L 187.117 422.298 A 180 180 0 0 0 256.000 436.000 z"
         style="fill:#facc15;fill-opacity:1;stroke-width:3;stroke:#facc15;stroke-opacity:1;" />
      <path id="arc_color_05"
         d="M 158.033,492.513 A256 256 0 0 1 74.981 437.019 L 128.721 383.279 A 180 180 0 0 0 187.117 422.298 z"
         style="fill:#059669;fill-opacity:1;stroke-width:3;stroke:#059669;stroke-opacity:1;" />
      <path id="arc_color_06"
         d="M 74.981,437.019 A256 256 0 0 1 19.487 353.967 L 89.702 324.883 A 180 180 0 0 0 128.721 383.279 z"
         style="fill:#2563eb;fill-opacity:1;stroke-width:3;stroke:#2563eb;stroke-opacity:1;" />
      <path id="arc_color_07"
         d="M 19.487,353.967 A256 256 0 0 1 0.000 256.000 L 76.000 256.000 A 180 180 0 0 0 89.702 324.883 z"
         style="fill:#dc2626;fill-opacity:1;stroke-width:3;stroke:#dc2626;stroke-opacity:1;" />
      <path id="arc_color_08"
         d="M 0.000,256.000 A256 256 0 0 1 19.487 158.033 L 89.702 187.117 A 180 180 0 0 0 76.000 256.000 z"
         style="fill:#facc15;fill-opacity:1;stroke-width:3;stroke:#facc15;stroke-opacity:1;" />
      <path id="arc_color_09"
         d="M 19.487,158.033 A256 256 0 0 1 74.981 74.981 L 128.721 128.721 A 180 180 0 0 0 89.702 187.117 z"
         style="fill:#059669;fill-opacity:1;stroke-width:3;stroke:#059669;stroke-opacity:1;" />
      <path id="arc_color_10"
         d="M 74.981,74.981 A256 256 0 0 1 158.033 19.487 L 187.117 89.702 A 180 180 0 0 0 128.721 128.721 z"
         style="fill:#2563eb;fill-opacity:1;stroke-width:3;stroke:#2563eb;stroke-opacity:1;" />
      <path id="arc_color_11"
         d="M 158.033,19.487 A256 256 0 0 1 256.000 0.000 L 256.000 76.000 A 180 180 0 0 0 187.117 89.702 z"
         style="fill:#dc2626;fill-opacity:1;stroke-width:3;stroke:#dc2626;stroke-opacity:1;" />
      <path id="arc_color_12"
         d="M 256.000,0.000 A256 256 0 0 1 353.967 19.487 L 324.883 89.702 A 180 180 0 0 0 256.000 76.000 z"
         style="fill:#facc15;fill-opacity:1;stroke-width:3;stroke:#facc15;stroke-opacity:1;" />
      <path id="arc_color_13"
         d="M 353.967,19.487 A256 256 0 0 1 437.019 74.981 L 383.279 128.721 A 180 180 0 0 0 324.883 89.702 z"
         style="fill:#059669;fill-opacity:1;stroke-width:3;stroke:#059669;stroke-opacity:1;" />
      <path id="arc_color_14"
         d="M 437.019,74.981 A256 256 0 0 1 492.513 158.033 L 422.298 187.117 A 180 180 0 0 0 383.279 128.721 z"
         style="fill:#2563eb;fill-opacity:1;stroke-width:3;stroke:#2563eb;stroke-opacity:1;" />
      <path id="arc_color_15"
         d="M 492.513,158.033 A256 256 0 0 1 512.000 256.000 L 436.000 256.000  A 180 180 0 0 0 422.298 187.117 z"
         style="fill:#dc2626;fill-opacity:1;stroke-width:3;stroke:#dc2626;stroke-opacity:1;" />
      <circle cx="256" cy="256" r="180" style="fill:#fff;stroke-width:3;stroke:#000" id="circle24" />
      <path d="M 0 256 L 512 256" style="stroke-width:3;stroke:#000" id="path26" />
      <path d="M 256 0 L 256 512" style="stroke-width:3;stroke:#000" id="path28" />
      <circle cx="256" cy="256" r="256" style="fill-opacity:0;stroke-width:3;stroke:#000" id="circle30" />
      <text x="110" y="245" fill="#000000" class="heavy" id="text_left_hand">Left Hand</text>
      <text x="263" y="245" fill="#000000" class="heavy" id="text_right_hand">Right Hand</text>
      <text x="120" y="285" fill="#000000" class="heavy" id="text_left_foot">Left Foot</text>
      <text x="263" y="285" fill="#000000" class="heavy" id="text_right_foot">Right Foot</text>
      <path style="fill:#000000;stroke-width:0.230124"
         d="m 325.56435,411.2014 c -3.89448,-0.507 -6.68687,-1.75961 -8.93423,-4.00769 -1.78956,-1.79014 -2.60938,-3.2551 -3.38915,-6.05621 -0.42089,-1.51194 -0.49372,-2.38449 -0.49373,-5.91575 -2e-5,-4.03626 0.0181,-4.19394 0.70925,-6.16416 1.0102,-2.87975 2.47001,-5.14363 5.99615,-9.29884 3.30451,-3.894 4.48692,-5.49388 5.40942,-7.31923 2.43633,-4.82077 2.13159,-11.59564 -0.74034,-16.45895 -1.21533,-2.05803 -2.84433,-3.82563 -6.96428,-7.55681 -6.08732,-5.51292 -7.53178,-7.38418 -8.6379,-11.19023 -0.6018,-2.07073 -0.73707,-5.58939 -0.29103,-7.57045 0.86744,-3.85271 3.84336,-6.76483 8.01132,-7.83958 6.68928,-1.72488 18.33485,-0.0233 26.64187,3.89263 3.45343,1.62796 5.80642,3.26792 8.27112,5.76467 2.425,2.45656 3.92344,4.83971 4.92765,7.83709 1.03604,3.09239 1.24821,4.93465 1.09797,9.53397 -0.22012,6.73873 -1.37656,10.87551 -5.36421,19.18865 -6.66322,13.89094 -7.59594,16.97764 -8.02079,26.54368 -0.20444,4.60332 -1.12242,7.61175 -3.30191,10.82119 -1.90311,2.80245 -5.14938,5.04258 -8.26385,5.70256 -1.67236,0.35439 -4.36858,0.39221 -6.66333,0.0935 z m 26.51052,-87.27121 c -2.25963,-2.25961 -1.25072,-7.29562 1.46159,-7.29562 1.05903,0 1.75477,0.47238 2.31024,1.56854 0.67872,1.3394 0.80146,2.61827 0.38783,4.04109 -0.6995,2.40621 -2.64919,3.19646 -4.15966,1.68599 z m -6.21193,-5.26395 c -2.1797,-1.71455 -1.93226,-6.24717 0.46148,-8.45365 1.17817,-1.086 2.25931,-1.24443 3.46692,-0.50804 2.31743,1.41318 2.09118,6.41082 -0.39178,8.65403 -0.73397,0.66309 -1.07301,0.80735 -1.8975,0.80735 -0.68183,0 -1.20765,-0.1603 -1.63912,-0.49969 z m -35.5562,-3.29322 c -2.94417,-0.88431 -5.57183,-4.25788 -6.54557,-8.40363 -0.41303,-1.75847 -0.46339,-4.99403 -0.1046,-6.71979 0.63068,-3.03361 2.74586,-5.78735 4.91096,-6.39353 3.67315,-1.02843 7.7688,2.53933 9.26086,8.06722 0.56848,2.10618 0.55577,6.07491 -0.0256,8.01326 -0.5632,1.87755 -1.92765,3.92319 -3.16128,4.73957 -1.12478,0.74435 -3.11267,1.06394 -4.3347,0.6969 z m 27.47411,-0.0836 c -2.10707,-1.32508 -3.17331,-5.15095 -2.28609,-8.20288 1.37302,-4.72305 5.41446,-5.47513 7.43089,-1.38283 0.61952,1.25729 0.77776,2.0159 0.77776,3.72851 0,2.14594 -0.54146,3.73986 -1.70823,5.0286 -0.91192,1.00725 -1.08728,1.09992 -2.24378,1.18576 -0.96336,0.0715 -1.42071,-0.0114 -1.97055,-0.35716 z m -10.90522,-1.41856 c -1.87967,-0.33982 -3.06476,-1.4354 -4.22927,-3.90986 -0.59743,-1.26948 -0.71766,-1.83193 -0.79456,-3.71729 -0.10142,-2.48593 0.25748,-4.02328 1.30024,-5.56969 0.93843,-1.3917 1.99013,-1.98907 3.50183,-1.98907 3.10313,0 5.41666,3.09509 5.68595,7.60677 0.27814,4.65998 -2.24589,8.16096 -5.46419,7.57914 z"
         id="right_foot" />
      <path style="fill:#000000;stroke-width:0.230124"
         d="m 191.75235,413.43653 c 3.89446,-0.507 6.68685,-1.75961 8.9342,-4.00769 1.78955,-1.79014 2.60937,-3.2551 3.38913,-6.05621 0.42089,-1.51194 0.49372,-2.38449 0.49374,-5.91575 2e-5,-4.03626 -0.0181,-4.19394 -0.70925,-6.16416 -1.01019,-2.87975 -2.47,-5.14363 -5.99613,-9.29884 -3.3045,-3.894 -4.4869,-5.49388 -5.40941,-7.31923 -2.43631,-4.82077 -2.13159,-11.59564 0.74034,-16.45895 1.21533,-2.05803 2.84432,-3.82563 6.96426,-7.55681 6.0873,-5.51292 7.53176,-7.38418 8.63787,-11.19023 0.60181,-2.07073 0.73707,-5.58939 0.29103,-7.57045 -0.86744,-3.85271 -3.84335,-6.76483 -8.0113,-7.83958 -6.68926,-1.72488 -18.33479,-0.0233 -26.64179,3.89263 -3.45342,1.62796 -5.8064,3.26792 -8.2711,5.76467 -2.42499,2.45656 -3.92342,4.83971 -4.92762,7.83709 -1.03604,3.09239 -1.2482,4.93465 -1.09797,9.53397 0.22012,6.73873 1.37656,10.87551 5.3642,19.18865 6.6632,13.89094 7.59592,16.97764 8.02076,26.54368 0.20443,4.60332 1.12241,7.61175 3.3019,10.82119 1.9031,2.80245 5.14937,5.04258 8.26383,5.70256 1.67236,0.35439 4.36856,0.39221 6.66331,0.0935 z m -26.51044,-87.27121 c 2.25962,-2.25961 1.25071,-7.29562 -1.46159,-7.29562 -1.05903,0 -1.75476,0.47238 -2.31024,1.56854 -0.67872,1.3394 -0.80146,2.61827 -0.38783,4.04109 0.6995,2.40621 2.64918,3.19646 4.15966,1.68599 z m 6.21191,-5.26395 c 2.17969,-1.71455 1.93226,-6.24717 -0.46148,-8.45365 -1.17817,-1.086 -2.25931,-1.24443 -3.46691,-0.50804 -2.31742,1.41318 -2.09118,6.41082 0.39177,8.65403 0.73397,0.66309 1.07301,0.80735 1.8975,0.80735 0.68182,0 1.20764,-0.1603 1.63912,-0.49969 z m 35.55609,-3.29322 c 2.94416,-0.88431 5.57181,-4.25788 6.54555,-8.40363 0.41302,-1.75847 0.46339,-4.99403 0.10461,-6.71979 -0.63068,-3.03361 -2.74586,-5.78735 -4.91095,-6.39353 -3.67315,-1.02843 -7.76878,2.53933 -9.26083,8.06722 -0.56848,2.10618 -0.55577,6.07491 0.0256,8.01326 0.5632,1.87755 1.92764,3.92319 3.16127,4.73957 1.12477,0.74435 3.11265,1.06394 4.33469,0.6969 z m -27.47403,-0.0836 c 2.10707,-1.32508 3.17331,-5.15095 2.28609,-8.20288 -1.37302,-4.72305 -5.41445,-5.47513 -7.43087,-1.38283 -0.61952,1.25729 -0.77775,2.0159 -0.77775,3.72851 0,2.14594 0.54145,3.73986 1.70822,5.0286 0.91192,1.00725 1.08728,1.09992 2.24377,1.18576 0.96336,0.0715 1.4207,-0.0114 1.97054,-0.35716 z m 10.90518,-1.41856 c 1.87967,-0.33982 3.06475,-1.4354 4.22926,-3.90986 0.59743,-1.26948 0.71767,-1.83193 0.79456,-3.71729 0.10142,-2.48593 -0.25748,-4.02328 -1.30024,-5.56969 -0.93842,-1.3917 -1.99012,-1.98907 -3.50181,-1.98907 -3.10313,0 -5.41664,3.09509 -5.68593,7.60677 -0.27814,4.65998 2.24587,8.16096 5.46416,7.57914 z"
         id="left_foot" />
      <g inkscape:label="Layer 1" id="layer1-9" transform="matrix(0.66703779,0,0,0.66703779,136.92159,119.72039)">
         <path style="fill:#000000;stroke-width:0.263854"
            d="M 52.05929,135.00228 C 34.712035,132.67637 21.616715,117.87589 21.598823,100.57551 21.590849,93.321928 20.069645,85.473152 17.327052,78.541905 16.0195,75.237377 14.442576,72.299475 7.4820887,60.200156 3.7532866,53.718425 0.64538165,48.017518 0.45974047,47.318865 -0.46882429,43.824174 2.0216822,39.953407 5.6890824,39.191348 c 2.347887,-0.487867 5.2819526,0.536434 6.5702166,2.293706 0.303102,0.413449 4.613389,7.819693 9.578403,16.458312 4.965015,8.63862 9.269669,15.914464 9.565894,16.16854 1.264065,1.084216 3.481653,0.07024 3.459242,-1.581712 -0.0055,-0.400449 -3.110886,-12.318495 -6.901,-26.48456 -4.663029,-17.428664 -6.891132,-26.183295 -6.891132,-27.076527 0,-2.136275 0.698208,-3.735923 2.354057,-5.393291 1.714091,-1.715681 3.256107,-2.35633 5.670838,-2.356015 2.749381,3.7e-4 5.590008,1.73428 6.856162,4.185009 0.212091,0.410522 3.414583,12.089303 7.116645,25.952847 3.702062,13.863541 6.808824,25.409383 6.903913,25.657413 0.09509,0.248029 0.521819,0.631567 0.94828,0.852299 0.6245,0.323247 0.951154,0.343281 1.678629,0.102973 0.496785,-0.164112 0.993905,-0.438192 1.104715,-0.609088 0.11081,-0.170887 0.260813,-14.030867 0.333339,-30.799955 L 54.169151,6.0720578 54.890496,4.7027007 c 0.888816,-1.6872749 2.254368,-3.0443004 3.860408,-3.83630461 0.941638,-0.46436185 1.67213,-0.60181268 3.198359,-0.60181268 3.222738,0 5.604413,1.46807899 7.185094,4.42893939 l 0.595018,1.1145582 0.131866,31.50254 0.131866,31.502543 0.622615,0.504569 c 1.093298,0.886003 2.726122,0.630829 3.310443,-0.51734 0.194236,-0.381672 3.824479,-12.869847 8.067203,-27.751495 4.242725,-14.881658 7.949298,-27.532714 8.236831,-28.113461 2.903584,-5.8646045 11.304431,-5.7080556 14.165631,0.263976 1.29505,2.70309 1.42866,2.060133 -6.795879,32.702871 l -7.431294,27.687333 0.003,7.02553 c 0.002,6.827145 0.02013,7.063332 0.625313,8.36412 1.567503,3.369389 5.922187,4.780903 9.164654,2.970587 0.748986,-0.418178 2.903926,-2.714676 6.768316,-7.212908 7.15688,-8.330818 8.44136,-9.665567 10.81233,-11.235576 4.1405,-2.741734 10.34242,-4.253187 13.58298,-3.310256 3.5213,1.024613 5.17762,5.239838 3.28346,8.356209 -0.64803,1.066188 -41.661112,44.181387 -44.710675,47.002307 -4.726345,4.37202 -11.645047,7.81787 -18.25397,9.09139 -2.648819,0.51041 -16.36536,0.76604 -19.384347,0.36126 z m 5.814104,-9.865 c 0.487586,-0.48803 0.647345,-0.92948 0.647345,-1.78876 0,-0.62745 0.121267,-2.10885 0.269485,-3.29198 1.740241,-13.89151 11.994648,-24.842794 25.648297,-27.391302 2.961756,-0.552818 3.888846,-1.58655 3.058594,-3.410435 -0.683964,-1.502524 -3.030116,-1.456549 -8.141498,0.159534 -14.085196,4.453346 -24.289135,17.455013 -24.976875,31.825043 -0.149935,3.13283 -0.13462,3.2633 0.457009,3.89366 0.824773,0.87874 2.162093,0.88061 3.037643,0.004 z"
            id="left_hand" />
      </g>
      <g inkscape:label="Layer 1" id="g258" transform="matrix(-0.6670347,0,0,0.66703779,372.17876,119.72039)">
         <path style="fill:#000000;stroke-width:0.263854"
            d="M 52.05929,135.00228 C 34.712035,132.67637 21.616715,117.87589 21.598823,100.57551 21.590849,93.321928 20.069645,85.473152 17.327052,78.541905 16.0195,75.237377 14.442576,72.299475 7.4820887,60.200156 3.7532866,53.718425 0.64538165,48.017518 0.45974047,47.318865 -0.46882429,43.824174 2.0216822,39.953407 5.6890824,39.191348 c 2.347887,-0.487867 5.2819526,0.536434 6.5702166,2.293706 0.303102,0.413449 4.613389,7.819693 9.578403,16.458312 4.965015,8.63862 9.269669,15.914464 9.565894,16.16854 1.264065,1.084216 3.481653,0.07024 3.459242,-1.581712 -0.0055,-0.400449 -3.110886,-12.318495 -6.901,-26.48456 -4.663029,-17.428664 -6.891132,-26.183295 -6.891132,-27.076527 0,-2.136275 0.698208,-3.735923 2.354057,-5.393291 1.714091,-1.715681 3.256107,-2.35633 5.670838,-2.356015 2.749381,3.7e-4 5.590008,1.73428 6.856162,4.185009 0.212091,0.410522 3.414583,12.089303 7.116645,25.952847 3.702062,13.863541 6.808824,25.409383 6.903913,25.657413 0.09509,0.248029 0.521819,0.631567 0.94828,0.852299 0.6245,0.323247 0.951154,0.343281 1.678629,0.102973 0.496785,-0.164112 0.993905,-0.438192 1.104715,-0.609088 0.11081,-0.170887 0.260813,-14.030867 0.333339,-30.799955 L 54.169151,6.0720578 54.890496,4.7027007 c 0.888816,-1.6872749 2.254368,-3.0443004 3.860408,-3.83630461 0.941638,-0.46436185 1.67213,-0.60181268 3.198359,-0.60181268 3.222738,0 5.604413,1.46807899 7.185094,4.42893939 l 0.595018,1.1145582 0.131866,31.50254 0.131866,31.502543 0.622615,0.504569 c 1.093298,0.886003 2.726122,0.630829 3.310443,-0.51734 0.194236,-0.381672 3.824479,-12.869847 8.067203,-27.751495 4.242725,-14.881658 7.949298,-27.532714 8.236831,-28.113461 2.903584,-5.8646045 11.304431,-5.7080556 14.165631,0.263976 1.29505,2.70309 1.42866,2.060133 -6.795879,32.702871 l -7.431294,27.687333 0.003,7.02553 c 0.002,6.827145 0.02013,7.063332 0.625313,8.36412 1.567503,3.369389 5.922187,4.780903 9.164654,2.970587 0.748986,-0.418178 2.903926,-2.714676 6.768316,-7.212908 7.15688,-8.330818 8.44136,-9.665567 10.81233,-11.235576 4.1405,-2.741734 10.34242,-4.253187 13.58298,-3.310256 3.5213,1.024613 5.17762,5.239838 3.28346,8.356209 -0.64803,1.066188 -41.661112,44.181387 -44.710675,47.002307 -4.726345,4.37202 -11.645047,7.81787 -18.25397,9.09139 -2.648819,0.51041 -16.36536,0.76604 -19.384347,0.36126 z m 5.814104,-9.865 c 0.487586,-0.48803 0.647345,-0.92948 0.647345,-1.78876 0,-0.62745 0.121267,-2.10885 0.269485,-3.29198 1.740241,-13.89151 11.994648,-24.842794 25.648297,-27.391302 2.961756,-0.552818 3.888846,-1.58655 3.058594,-3.410435 -0.683964,-1.502524 -3.030116,-1.456549 -8.141498,0.159534 -14.085196,4.453346 -24.289135,17.455013 -24.976875,31.825043 -0.149935,3.13283 -0.13462,3.2633 0.457009,3.89366 0.824773,0.87874 2.162093,0.88061 3.037643,0.004 z"
            id="right_hand" />
      </g>
   </g>
</svg>