<?xml version="1.0" encoding="UTF-8" standalone="no"?>
<!-- Created with Inkscape (http://www.inkscape.org/) -->

<svg width="512" height="512" viewBox="0 0 512 512" version="1.1" id="svg5"
   inkscape:version="1.2.2 (1:1.2.2+202305151914+b0a8486541)" sodipodi:docname="twister_circle.svg"
   xmlns:inkscape="http://www.inkscape.org/namespaces/inkscape"
   xmlns:sodipodi="http://sodipodi.sourceforge.net/DTD/sodipodi-0.dtd" xmlns="http://www.w3.org/2000/svg"
   xmlns:svg="http://www.w3.org/2000/svg">
   <sodipodi:namedview id="namedview7" pagecolor="#ffffff" bordercolor="#111111" borderopacity="1"
      inkscape:showpageshadow="0" inkscape:pageopacity="0" inkscape:pagecheckerboard="1" inkscape:deskcolor="#d1d1d1"
      inkscape:document-units="px" showgrid="false" inkscape:zoom="0.702883" inkscape:cx="113.1056"
      inkscape:cy="561.9712" inkscape:window-width="512" inkscape:window-height="512" inkscape:window-x="0"
      inkscape:window-y="0" inkscape:window-maximized="1" inkscape:current-layer="layer1" />
   <defs id="defs2">
      <inkscape:perspective sodipodi:type="inkscape:persp3d" inkscape:vp_x="0 : -9.8519686 : 1"
         inkscape:vp_y="0 : 755.90549 : 0" inkscape:vp_z="158.74015 : -9.8519686 : 1"
         inkscape:persp3d-origin="79.370086 : -47.269294 : 1" id="perspective371" />
   </defs>
   <g inkscape:label="Layer 1" inkscape:groupmode="layer" id="layer1">
      <circle style="fill:#e3e3e3;fill-opacity:1;stroke-width:0.25" id="path668" cx="256" cy="256" r="256"
         inkscape:label="twister_circle" sodipodi:insensitive="true" />
      <path id="14600" d="M 512.000,256.000 A256 256 0 0 1 492.513 353.967"
         style="fill:#eeeeee;fill-opacity:1;stroke-width:5;stroke:#facc15;stroke-opacity:1;" />
      <path id="14601" d="M 492.513,353.967 A256 256 0 0 1 437.019 437.019"
         style="fill:#eeeeee;fill-opacity:1;stroke-width:5;stroke:#059669;stroke-opacity:1;" />
      <path id="14602" d="M 437.019,437.019 A256 256 0 0 1 353.967 492.513"
         style="fill:#eeeeee;fill-opacity:1;stroke-width:5;stroke:#2563eb;stroke-opacity:1;" />
      <path id="14603" d="M 353.967,492.513 A256 256 0 0 1 256.000 512.000"
         style="fill:#eeeeee;fill-opacity:1;stroke-width:5;stroke:#dc2626;stroke-opacity:1;" />
      <path id="14604" d="M 256.000,512.000 A256 256 0 0 1 158.033 492.513"
         style="fill:#eeeeee;fill-opacity:1;stroke-width:5;stroke:#facc15;stroke-opacity:1;" />
      <path id="14605" d="M 158.033,492.513 A256 256 0 0 1 74.981 437.019"
         style="fill:#eeeeee;fill-opacity:1;stroke-width:5;stroke:#059669;stroke-opacity:1;" />
      <path id="14606" d="M 74.981,437.019 A256 256 0 0 1 19.487 353.967"
         style="fill:#eeeeee;fill-opacity:1;stroke-width:5;stroke:#2563eb;stroke-opacity:1;" />
      <path id="14607" d="M 19.487,353.967 A256 256 0 0 1 0.000 256.000"
         style="fill:#eeeeee;fill-opacity:1;stroke-width:5;stroke:#dc2626;stroke-opacity:1;" />
      <path id="14608" d="M 0.000,256.000 A256 256 0 0 1 19.487 158.033"
         style="fill:#eeeeee;fill-opacity:1;stroke-width:5;stroke:#facc15;stroke-opacity:1;" />
      <path id="14609" d="M 19.487,158.033 A256 256 0 0 1 74.981 74.981"
         style="fill:#eeeeee;fill-opacity:1;stroke-width:5;stroke:#059669;stroke-opacity:1;" />
      <path id="14610" d="M 74.981,74.981 A256 256 0 0 1 158.033 19.487"
         style="fill:#eeeeee;fill-opacity:1;stroke-width:5;stroke:#2563eb;stroke-opacity:1;" />
      <path id="14611" d="M 158.033,19.487 A256 256 0 0 1 256.000 0.000"
         style="fill:#eeeeee;fill-opacity:1;stroke-width:5;stroke:#dc2626;stroke-opacity:1;" />
      <path id="14612" d="M 256.000,0.000 A256 256 0 0 1 353.967 19.487"
         style="fill:#eeeeee;fill-opacity:1;stroke-width:5;stroke:#facc15;stroke-opacity:1;" />
      <path id="14613" d="M 353.967,19.487 A256 256 0 0 1 437.019 74.981"
         style="fill:#eeeeee;fill-opacity:1;stroke-width:5;stroke:#059669;stroke-opacity:1;" />
      <path id="14614" d="M 437.019,74.981 A256 256 0 0 1 492.513 158.033"
         style="fill:#eeeeee;fill-opacity:1;stroke-width:5;stroke:#2563eb;stroke-opacity:1;" />
      <path id="14615" d="M 492.513,158.033 A256 256 0 0 1 512.000 256.000"
         style="fill:#eeeeee;fill-opacity:1;stroke-width:5;stroke:#dc2626;stroke-opacity:1;" />
   </g>
</svg>